<?xml version="1.0" standalone="no"?>
<!DOCTYPE svg PUBLIC "-//W3C//DTD SVG 20010904//EN"
 "http://www.w3.org/TR/2001/REC-SVG-20010904/DTD/svg10.dtd">
<svg version="1.0" xmlns="http://www.w3.org/2000/svg"
 width="338.000000pt" height="190.000000pt" viewBox="0 0 338.000000 190.000000"
 preserveAspectRatio="xMidYMid meet">
<metadata>
Created by potrace 1.16, written by Peter Selinger 2001-2019
</metadata>
<g transform="translate(0.000000,190.000000) scale(0.100000,-0.100000)"
fill="#000000" stroke="none">
<path d="M0 950 l0 -950 1690 0 1690 0 0 950 0 950 -1690 0 -1690 0 0 -950z
m2555 381 c174 -10 238 -25 349 -84 57 -30 176 -137 176 -157 0 -5 -24 15 -54
45 -48 49 -59 55 -97 57 -39 1 -40 2 -10 5 l33 4 -37 20 c-25 14 -46 18 -66
14 -18 -4 -29 -3 -29 4 0 6 -12 11 -27 11 -23 0 -25 2 -13 11 13 9 12 10 -2 5
-10 -3 -25 -9 -35 -13 -11 -4 -14 -3 -8 6 6 10 3 11 -13 2 -28 -15 -32 -14
-32 5 0 12 -5 11 -20 -7 -13 -16 -19 -19 -20 -10 0 12 -3 12 -12 3 -8 -8 -15
-9 -25 -1 -7 6 -20 8 -30 3 -10 -4 -22 -8 -26 -8 -5 -1 -15 -10 -23 -20 -10
-14 -14 -16 -14 -5 -1 14 -34 -39 -35 -55 0 -5 -6 -11 -14 -14 -9 -3 -11 0 -6
8 6 10 1 11 -21 6 -26 -5 -25 -4 9 14 36 20 54 40 20 22 -25 -13 -80 -25 -71
-16 9 9 -10 34 -26 34 -7 0 -6 -4 2 -9 11 -7 11 -9 -2 -14 -11 -4 -16 -1 -16
11 0 13 -2 14 -9 3 -7 -10 -10 -10 -16 -1 -8 13 14 32 27 24 4 -3 8 0 8 5 0 6
-4 11 -10 11 -5 0 -10 11 -10 24 0 14 -4 28 -10 31 -10 6 -14 -13 -11 -47 1
-11 -13 -25 -41 -39 -29 -15 -39 -17 -30 -7 10 13 10 17 -3 22 -22 8 -45 -3
-38 -20 6 -15 3 -16 -56 -18 -47 -1 -57 -9 -36 -26 12 -10 19 -10 27 -2 15 15
65 15 74 0 5 -8 -2 -9 -24 -5 -18 4 -32 3 -32 -2 0 -5 -9 -11 -20 -14 -11 -3
-20 -2 -20 3 0 11 -109 5 -121 -7 -7 -7 -19 -9 -28 -6 -13 4 -13 3 1 -7 13 -8
23 -8 39 1 16 8 24 8 33 -1 8 -8 7 -10 -6 -5 -11 4 -18 2 -18 -4 0 -6 5 -11
11 -11 5 0 7 -5 4 -10 -4 -6 -21 -8 -41 -4 -20 4 -40 2 -48 -5 -7 -6 -37 -16
-66 -21 -69 -13 -85 -34 -30 -38 30 -2 40 -8 40 -20 0 -13 2 -14 9 -3 6 10 13
10 28 3 14 -8 23 -8 31 0 9 9 12 9 12 -1 0 -7 5 -9 13 -5 8 5 9 4 2 -3 -5 -5
-46 -15 -90 -21 -105 -16 -116 -15 -109 3 5 11 2 13 -10 9 -13 -5 -16 -2 -12
17 2 13 7 32 11 42 12 29 -15 19 -33 -13 -11 -20 -25 -30 -40 -30 -13 0 -20 4
-17 10 3 6 1 10 -6 10 -7 0 -2 11 11 25 17 19 34 25 64 25 43 1 85 18 85 35 0
6 19 13 43 18 63 11 118 29 118 38 0 5 7 6 15 3 8 -4 15 -1 15 6 0 7 8 9 19 5
22 -7 56 24 65 58 l5 22 -18 -22 c-10 -12 -21 -20 -24 -17 -2 3 -24 -8 -48
-24 -41 -26 -111 -61 -98 -48 3 3 56 37 118 76 130 82 236 123 296 115 22 -3
112 -9 200 -14z"/>
</g>
</svg>
